IKResults
version=1
nRows=37
nColumns=24
inDegrees=yes

Units are S.I. units (second, meters, Newtons, ...)
If the header above contains a line with 'inDegrees', this indicates whether rotational values are in degrees (yes) or radians (no).

endheader
time	pelvis_tilt	pelvis_list	pelvis_rotation	pelvis_tx	pelvis_ty	pelvis_tz	hip_flexion_r	hip_adduction_r	hip_rotation_r	knee_angle_r	ankle_angle_r	subtalar_angle_r	mtp_angle_r	hip_flexion_l	hip_adduction_l	hip_rotation_l	knee_angle_l	ankle_angle_l	subtalar_angle_l	mtp_angle_l	lumbar_extension	lumbar_bending	lumbar_rotation
1.075000	8.425511	7.197510	-180.188460	0.315841	0.334326	-1.199358	102.167574	-35.112681	2.478116	-138.846076	42.453962	9.941025	0.000000	117.189864	-35.154902	24.616938	-139.589010	43.199376	26.763034	0.000000	-22.562934	7.324883	6.490182
1.080000	8.366892	7.198583	-180.174614	0.315652	0.333595	-1.199349	102.220653	-35.139376	2.582234	-138.965953	42.477709	10.001049	0.000000	117.241109	-35.127166	24.708940	-139.705100	43.249667	26.838116	0.000000	-22.608497	7.380402	6.331016
1.085000	8.314740	7.197846	-180.188990	0.315441	0.333021	-1.199253	102.252043	-35.140409	2.680108	-139.057487	42.517611	10.041076	0.000000	117.255637	-35.123401	24.809339	-139.863258	43.249375	26.913592	0.000000	-22.658822	7.392275	6.317958
1.090000	8.292045	7.254562	-180.235499	0.315171	0.332509	-1.199025	102.260795	-35.145156	2.692162	-139.125190	42.516596	10.102718	0.000000	117.337218	-35.107769	24.938011	-139.931894	43.372975	26.865394	0.000000	-22.667852	7.428727	6.489582
1.095000	8.252585	7.272954	-180.257080	0.314926	0.331998	-1.198738	102.294872	-35.161622	2.770131	-139.201346	42.515275	10.112808	0.000000	117.343986	-35.077673	25.034409	-140.115037	43.356219	26.857766	0.000000	-22.687973	7.468496	6.515170
1.100000	8.470955	7.543113	-180.241596	0.315220	0.331312	-1.198893	102.366705	-35.177352	2.403314	-139.225537	42.499567	9.994750	0.000000	117.479019	-35.043299	24.805550	-139.826992	43.855725	26.115814	0.000000	-22.486138	7.807472	6.442303
1.105000	8.459859	7.561891	-180.252273	0.314991	0.330865	-1.198767	102.393849	-35.189356	2.459829	-139.287345	42.518440	10.029140	0.000000	117.504172	-35.021312	24.867391	-139.924490	43.939059	26.115166	0.000000	-22.469448	7.802356	6.547872
1.110000	8.440669	7.563526	-180.256959	0.314746	0.330541	-1.198771	102.401383	-35.195811	2.503148	-139.336496	42.528290	10.026572	0.000000	117.506279	-35.012446	24.928024	-139.982071	43.952871	26.120814	0.000000	-22.466219	7.814695	6.529115
1.115000	8.453062	7.583414	-180.255261	0.314526	0.330136	-1.198721	102.449240	-35.213019	2.546915	-139.409445	42.564243	10.058660	0.000000	117.521464	-34.996576	24.920970	-140.032237	44.194185	26.113950	0.000000	-22.413555	7.840146	6.531186
1.120000	8.425071	7.594127	-180.279619	0.314239	0.329860	-1.198490	102.459908	-35.222219	2.610052	-139.457000	42.552946	10.100143	0.000000	117.506748	-34.992487	24.973019	-140.117607	44.260400	26.097204	0.000000	-22.408840	7.879558	6.542013
1.125000	8.124369	7.364520	-180.370395	0.313333	0.329912	-1.197793	102.363495	-35.218656	3.095881	-139.531587	42.643436	10.400218	0.000000	117.392640	-35.011004	25.345445	-140.600757	43.775736	26.759359	0.000000	-22.636024	7.697295	6.557323
1.130000	8.340961	7.907871	-180.419431	0.313614	0.329389	-1.198695	102.114704	-35.123291	2.188020	-139.558392	42.615034	10.092893	0.000000	117.441398	-35.276870	25.155218	-141.372367	45.773618	25.875594	0.000000	-22.439530	8.149447	6.794042
1.135000	8.099276	7.391047	-180.417352	0.312858	0.329494	-1.197384	102.359491	-35.211111	3.184382	-139.588146	42.631034	10.398436	0.000000	117.368050	-34.995782	25.412896	-140.736628	43.888974	26.691293	0.000000	-22.601175	7.774740	6.607105
1.140000	8.014023	7.431261	-180.396867	0.312528	0.329480	-1.197213	102.214766	-35.254023	3.182504	-139.615121	42.668496	10.498646	0.000000	117.276106	-34.969958	25.465871	-140.788128	43.959536	26.689874	0.000000	-22.656190	7.838477	6.613199
1.145000	8.007254	7.435576	-180.409178	0.312322	0.329361	-1.197065	102.212424	-35.248734	3.225254	-139.634118	42.680894	10.523801	0.000000	117.246321	-34.960175	25.471931	-140.839641	44.030892	26.692542	0.000000	-22.631226	7.854499	6.637570
1.150000	8.059423	7.406083	-180.468467	0.312199	0.329161	-1.196916	102.313607	-35.185768	3.315212	-139.646482	42.717676	10.538745	0.000000	117.267921	-34.997719	25.437090	-140.891666	44.105185	26.654335	0.000000	-22.551849	7.827481	6.665546
1.155000	8.295962	7.924185	-180.497028	0.312522	0.328779	-1.197834	102.096153	-35.103386	2.418374	-139.659464	42.665998	10.154002	0.000000	117.279072	-35.260222	25.161103	-141.626581	46.090775	25.758859	0.000000	-22.339175	8.319187	6.717125
1.160000	8.087921	7.429546	-180.486927	0.311810	0.328951	-1.196619	102.329231	-35.195726	3.343023	-139.664986	42.693063	10.477629	0.000000	117.202179	-35.003317	25.364876	-140.991149	44.318833	26.535732	0.000000	-22.472303	7.960486	6.486622
1.165000	8.272742	7.904346	-180.514857	0.312064	0.328600	-1.197591	102.074340	-35.108796	2.521079	-139.687598	42.687791	10.210864	0.000000	117.178050	-35.288490	25.110110	-141.696848	46.199962	25.716740	0.000000	-22.310635	8.328787	6.678480
1.170000	8.028762	7.381887	-180.511826	0.311316	0.328876	-1.196329	102.297259	-35.196247	3.495411	-139.700303	42.703303	10.571367	0.000000	117.095049	-35.031677	25.332314	-141.053443	44.308713	26.502414	0.000000	-22.486657	7.942709	6.471386
1.175000	7.975160	7.391860	-180.543852	0.311167	0.328905	-1.196100	102.236352	-35.179641	3.511656	-139.692820	42.690019	10.581607	0.000000	117.014102	-35.058836	25.323606	-141.112481	44.362418	26.412832	0.000000	-22.526112	7.946015	6.593643
1.180000	7.900283	7.470371	-180.546444	0.310871	0.329116	-1.195780	102.049721	-35.224133	3.436240	-139.673747	42.708373	10.601208	0.000000	116.927831	-35.054435	25.339978	-141.187448	44.441435	26.291397	0.000000	-22.593698	8.060157	6.661096
1.185000	7.964601	7.417124	-180.610413	0.310760	0.329047	-1.195635	102.157108	-35.166712	3.519514	-139.664213	42.711639	10.590039	0.000000	116.935185	-35.108873	25.253111	-141.209913	44.443132	26.230398	0.000000	-22.516332	8.008643	6.698950
1.190000	7.982236	7.403081	-180.594733	0.310581	0.329093	-1.195508	102.159541	-35.198899	3.562288	-139.656453	42.716164	10.617217	0.000000	116.885437	-35.105022	25.173112	-141.216133	44.502680	26.187452	0.000000	-22.478919	8.005675	6.672984
1.195000	7.964455	7.390189	-180.593863	0.310422	0.329091	-1.195412	102.131139	-35.209529	3.603224	-139.655940	42.749344	10.643336	0.000000	116.830021	-35.126335	25.117677	-141.235284	44.537238	26.154261	0.000000	-22.477536	7.930911	6.803493
1.200000	8.220303	7.904824	-180.610025	0.310765	0.328828	-1.196373	101.895462	-35.143583	2.705243	-139.650888	42.749891	10.369919	0.000000	116.839694	-35.420304	24.811348	-141.996623	46.462313	25.339779	0.000000	-22.256278	8.343574	6.996343
1.205000	7.956368	7.364395	-180.597012	0.310017	0.329294	-1.195033	102.091817	-35.261428	3.696169	-139.640573	42.787268	10.769560	0.000000	116.694456	-35.196952	24.937030	-141.321322	44.574326	26.014863	0.000000	-22.446967	7.969230	6.742581
1.210000	7.804653	7.498476	-180.583104	0.309593	0.329829	-1.194822	101.712620	-35.341791	3.496913	-139.609159	42.834653	10.816125	0.000000	116.560345	-35.225605	25.037128	-141.338869	44.671858	25.982657	0.000000	-22.596032	8.124126	6.813972
1.215000	8.168890	7.943523	-180.623083	0.310077	0.329396	-1.195857	101.670613	-35.233778	2.660525	-139.592399	42.796587	10.444433	0.000000	116.658160	-35.543807	24.638309	-142.027115	46.625055	25.231295	0.000000	-22.247875	8.452984	6.989458
1.220000	8.285152	7.855511	-180.638004	0.309956	0.329396	-1.195882	101.824943	-35.219647	2.760528	-139.576284	42.822475	10.405443	0.000000	116.653925	-35.615838	24.472475	-142.003801	46.696056	25.290862	0.000000	-22.106908	8.380323	6.861914
1.225000	8.281450	7.845572	-180.640700	0.309756	0.329609	-1.195746	101.771467	-35.243750	2.762340	-139.549016	42.817957	10.417184	0.000000	116.588183	-35.666582	24.361058	-141.935751	46.779816	25.196089	0.000000	-22.089345	8.372125	6.845559
1.230000	8.279872	7.846021	-180.641885	0.309581	0.329847	-1.195477	101.722683	-35.284772	2.761348	-139.510131	42.824539	10.427304	0.000000	116.508165	-35.697897	24.322545	-141.990374	46.770151	25.195985	0.000000	-22.053833	8.360142	6.933712
1.235000	8.254193	7.854723	-180.659299	0.309352	0.330213	-1.195252	101.607705	-35.305863	2.732117	-139.465131	42.853533	10.477799	0.000000	116.411408	-35.778871	24.226802	-141.949246	46.867177	25.092254	0.000000	-22.063621	8.370025	6.957518
1.240000	8.238945	7.852343	-180.657888	0.309159	0.330577	-1.195115	101.499214	-35.335159	2.720397	-139.420437	42.916910	10.525137	0.000000	116.301501	-35.840814	24.141625	-141.921797	46.924091	25.040638	0.000000	-22.057162	8.360121	6.964971
1.245000	8.103675	7.920332	-180.596951	0.308692	0.331356	-1.195076	101.112661	-35.439074	2.545401	-139.358341	43.011307	10.547196	0.000000	116.070646	-35.896141	24.141699	-141.855409	47.017999	25.071735	0.000000	-22.186466	8.457948	6.848611
1.250000	8.174130	7.805475	-180.580262	0.308666	0.331565	-1.195046	101.219881	-35.440649	2.703546	-139.316978	43.046101	10.653853	0.000000	115.955569	-35.959771	23.885140	-141.784523	47.076314	25.111664	0.000000	-22.050017	8.305649	6.879432
1.255000	8.238329	7.707012	-180.599986	0.308514	0.332031	-1.195010	101.254688	-35.410420	2.769273	-139.246122	43.084056	10.618013	0.000000	115.809376	-36.067445	23.651199	-141.700954	47.167062	25.052207	0.000000	-21.940400	8.188545	6.856865
